<svg width="375" height="394" viewBox="0 0 375 394" fill="none" xmlns="http://www.w3.org/2000/svg">
<g filter="url(#filter0_f_8_564)">
<ellipse cx="230.5" cy="100" rx="62.5" ry="65" fill="#6FFF3D"/>
</g>
<circle cx="184" cy="126" r="103" fill="white" fill-opacity="0.1"/>
<path opacity="0.5" d="M184.5 151C189.747 151 194 149.881 194 148.5C194 147.119 189.747 146 184.5 146C179.253 146 175 147.119 175 148.5C175 149.881 179.253 151 184.5 151Z" fill="#0DEFAD" fill-opacity="0.42"/>
<path d="M181.768 79.1388C177.561 79.6079 173.573 81.2636 170.27 83.9129C166.968 86.5622 164.486 90.0959 163.116 94.1018C161.745 98.1077 161.541 102.421 162.529 106.538C163.516 110.655 165.654 114.407 168.692 117.355C170.567 119.175 172.307 121.129 173.899 123.2C178.092 128.711 181.027 135.073 182.501 141.839L183.728 147.342C183.755 147.461 183.821 147.568 183.917 147.644C184.012 147.721 184.131 147.763 184.253 147.763C184.375 147.763 184.494 147.721 184.589 147.644C184.685 147.568 184.751 147.461 184.778 147.342L186.074 141.527C187.505 134.94 190.341 128.739 194.387 123.348C195.935 121.302 197.653 119.391 199.522 117.634C202.947 114.426 205.274 110.222 206.174 105.617C207.075 101.012 206.501 96.2407 204.536 91.9799C202.571 87.7191 199.314 84.1855 195.227 81.8805C191.14 79.5756 186.431 78.6163 181.768 79.139V79.1388Z" fill="url(#paint0_linear_8_564)"/>
<path d="M184.253 108.548C188.077 108.548 191.176 105.449 191.176 101.625C191.176 97.8016 188.077 94.702 184.253 94.702C180.429 94.702 177.33 97.8016 177.33 101.625C177.33 105.449 180.429 108.548 184.253 108.548Z" fill="white"/>
<path d="M209.753 51.925C209.951 51.4975 210.032 51.0308 209.989 50.5668C209.946 50.1028 209.78 49.6561 209.507 49.2669C209.234 48.8776 208.862 48.5581 208.424 48.3369C207.987 48.1158 207.497 48 207 48C206.503 48 206.013 48.1158 205.576 48.3369C205.138 48.5581 204.766 48.8776 204.493 49.2669C204.22 49.6561 204.054 50.1028 204.011 50.5668C203.968 51.0308 204.049 51.4975 204.247 51.925L204.249 51.9295C204.312 52.0644 204.386 52.1945 204.471 52.3184L206.734 55.8499C206.76 55.8953 206.799 55.9332 206.846 55.9596C206.893 55.986 206.946 56 207.001 56C207.056 56 207.11 55.986 207.157 55.9596C207.204 55.9332 207.243 55.8953 207.268 55.8499L209.531 52.3188C209.616 52.1945 209.69 52.0642 209.753 51.929L209.753 51.925Z" fill="url(#paint1_linear_8_564)"/>
<path d="M108.754 97.9248C108.951 97.4973 109.032 97.0306 108.989 96.5667C108.946 96.1028 108.78 95.6561 108.507 95.2669C108.234 94.8778 107.862 94.5583 107.424 94.3372C106.987 94.1161 106.497 94.0003 106 94.0003C105.503 94.0003 105.013 94.1161 104.576 94.3372C104.138 94.5583 103.766 94.8778 103.493 95.2669C103.22 95.6561 103.054 96.1028 103.011 96.5667C102.968 97.0306 103.049 97.4973 103.246 97.9248L103.249 97.9293C103.312 98.0642 103.386 98.1943 103.471 98.3183L105.734 101.85C105.76 101.895 105.798 101.933 105.845 101.96C105.893 101.986 105.946 102 106.001 102C106.056 102 106.11 101.986 106.157 101.96C106.204 101.933 106.243 101.895 106.269 101.85L108.531 98.3186C108.616 98.1944 108.691 98.064 108.754 97.9288L108.754 97.9248Z" fill="url(#paint2_linear_8_564)"/>
<path d="M187.713 208.906C187.943 208.372 188.037 207.788 187.987 207.208C187.937 206.628 187.744 206.07 187.425 205.584C187.106 205.097 186.672 204.698 186.162 204.421C185.651 204.145 185.08 204 184.5 204C183.92 204 183.349 204.145 182.838 204.421C182.328 204.698 181.894 205.097 181.575 205.584C181.256 206.07 181.063 206.628 181.013 207.208C180.963 207.788 181.057 208.372 181.287 208.906L181.29 208.912C181.364 209.08 181.451 209.243 181.55 209.398L184.19 213.813C184.22 213.869 184.265 213.917 184.32 213.95C184.375 213.983 184.437 214 184.502 214C184.566 214 184.628 213.983 184.683 213.95C184.738 213.917 184.783 213.869 184.813 213.813L187.453 209.398C187.552 209.243 187.639 209.08 187.712 208.911L187.713 208.906Z" fill="url(#paint3_linear_8_564)"/>
<path d="M129.671 169.397C129.935 168.809 130.042 168.167 129.985 167.529C129.928 166.891 129.707 166.277 129.343 165.742C128.979 165.207 128.483 164.767 127.899 164.463C127.316 164.159 126.663 164 126 164C125.337 164 124.684 164.159 124.101 164.463C123.517 164.767 123.021 165.207 122.657 165.742C122.293 166.277 122.072 166.891 122.015 167.529C121.958 168.167 122.065 168.809 122.329 169.397L122.332 169.403C122.416 169.588 122.514 169.767 122.627 169.937L125.644 174.793C125.679 174.856 125.73 174.908 125.793 174.944C125.856 174.981 125.927 175 126.001 175C126.074 175 126.146 174.981 126.208 174.944C126.271 174.908 126.323 174.856 126.357 174.793L129.373 169.938C129.486 169.767 129.585 169.588 129.669 169.402L129.671 169.397Z" fill="url(#paint4_linear_8_564)"/>
<path d="M247.672 186.396C247.935 185.808 248.042 185.166 247.985 184.529C247.928 183.891 247.707 183.277 247.343 182.741C246.979 182.206 246.483 181.767 245.899 181.463C245.316 181.159 244.663 181 244 181C243.337 181 242.684 181.159 242.101 181.463C241.517 181.767 241.021 182.206 240.657 182.741C240.293 183.277 240.072 183.891 240.015 184.529C239.958 185.166 240.065 185.808 240.328 186.396L240.332 186.402C240.415 186.588 240.514 186.766 240.627 186.937L243.644 191.793C243.679 191.856 243.73 191.908 243.793 191.944C243.855 191.981 243.927 192 244 192C244.074 192 244.145 191.981 244.208 191.944C244.271 191.908 244.322 191.856 244.357 191.793L247.373 186.937C247.486 186.766 247.585 186.587 247.669 186.401L247.672 186.396Z" fill="url(#paint5_linear_8_564)"/>
<path d="M257.754 111.415C257.951 110.934 258.032 110.409 257.989 109.887C257.946 109.365 257.78 108.863 257.507 108.425C257.234 107.987 256.862 107.628 256.424 107.379C255.987 107.13 255.497 107 255 107C254.503 107 254.013 107.13 253.576 107.379C253.138 107.628 252.766 107.987 252.493 108.425C252.22 108.863 252.054 109.365 252.011 109.887C251.968 110.409 252.049 110.934 252.246 111.415L252.249 111.42C252.312 111.572 252.386 111.718 252.47 111.858L254.733 115.831C254.759 115.882 254.797 115.925 254.845 115.955C254.892 115.984 254.945 116 255 116C255.055 116 255.109 115.984 255.156 115.955C255.203 115.925 255.242 115.882 255.268 115.831L257.529 111.858C257.614 111.718 257.688 111.572 257.751 111.42L257.754 111.415Z" fill="url(#paint6_linear_8_564)"/>
<defs>
<filter id="filter0_f_8_564" x="-61" y="-194" width="583" height="588" filterUnits="userSpaceOnUse" color-interpolation-filters="sRGB">
<feFlood flood-opacity="0" result="BackgroundImageFix"/>
<feBlend mode="normal" in="SourceGraphic" in2="BackgroundImageFix" result="shape"/>
<feGaussianBlur stdDeviation="114.5" result="effect1_foregroundBlur_8_564"/>
</filter>
<linearGradient id="paint0_linear_8_564" x1="172.832" y1="79" x2="184.007" y2="147.995" gradientUnits="userSpaceOnUse">
<stop stop-color="#47CA6C"/>
<stop offset="1" stop-color="#00F7BB"/>
</linearGradient>
<linearGradient id="paint1_linear_8_564" x1="205.466" y1="48" x2="206.6" y2="56.0786" gradientUnits="userSpaceOnUse">
<stop stop-color="#47CA6C"/>
<stop offset="1" stop-color="#00F7BB"/>
</linearGradient>
<linearGradient id="paint2_linear_8_564" x1="104.466" y1="94.0003" x2="105.6" y2="102.079" gradientUnits="userSpaceOnUse">
<stop stop-color="#47CA6C"/>
<stop offset="1" stop-color="#00F7BB"/>
</linearGradient>
<linearGradient id="paint3_linear_8_564" x1="182.711" y1="204" x2="184.225" y2="214.07" gradientUnits="userSpaceOnUse">
<stop stop-color="#47CA6C"/>
<stop offset="1" stop-color="#00F7BB"/>
</linearGradient>
<linearGradient id="paint4_linear_8_564" x1="123.955" y1="164" x2="125.561" y2="175.095" gradientUnits="userSpaceOnUse">
<stop stop-color="#47CA6C"/>
<stop offset="1" stop-color="#00F7BB"/>
</linearGradient>
<linearGradient id="paint5_linear_8_564" x1="241.955" y1="181" x2="243.561" y2="192.094" gradientUnits="userSpaceOnUse">
<stop stop-color="#47CA6C"/>
<stop offset="1" stop-color="#00F7BB"/>
</linearGradient>
<linearGradient id="paint6_linear_8_564" x1="253.466" y1="107" x2="254.894" y2="116.042" gradientUnits="userSpaceOnUse">
<stop stop-color="#47CA6C"/>
<stop offset="1" stop-color="#00F7BB"/>
</linearGradient>
</defs>
</svg>
